<?xml version="1.0" encoding="UTF-8" standalone="no"?>
<!DOCTYPE svg PUBLIC "-//W3C//DTD SVG 1.1//EN"
 "http://www.w3.org/Graphics/SVG/1.1/DTD/svg11.dtd">
<!-- Generated by graphviz version 2.38.0 (20140413.2041)
 -->
<!-- Title: snakemake_dag Pages: 1 -->
<svg width="1232pt" height="620pt"
 viewBox="0.00 0.00 1232.00 620.00" xmlns="http://www.w3.org/2000/svg" xmlns:xlink="http://www.w3.org/1999/xlink">
<g id="graph0" class="graph" transform="scale(1 1) rotate(0) translate(4 616)">
<title>snakemake_dag</title>
<polygon fill="white" stroke="none" points="-4,4 -4,-616 1228,-616 1228,4 -4,4"/>
<!-- 0 -->
<g id="node1" class="node"><title>0</title>
<path fill="none" stroke="#d85656" stroke-width="2" d="M745,-36C745,-36 673,-36 673,-36 667,-36 661,-30 661,-24 661,-24 661,-12 661,-12 661,-6 667,-0 673,-0 673,-0 745,-0 745,-0 751,-0 757,-6 757,-12 757,-12 757,-24 757,-24 757,-30 751,-36 745,-36"/>
<text text-anchor="middle" x="709" y="-15.5" font-family="sans" font-size="10.00">make_summary</text>
</g>
<!-- 1 -->
<g id="node2" class="node"><title>1</title>
<path fill="none" stroke="#569ad8" stroke-width="2" d="M84,-108C84,-108 12,-108 12,-108 6,-108 0,-102 0,-96 0,-96 0,-84 0,-84 0,-78 6,-72 12,-72 12,-72 84,-72 84,-72 90,-72 96,-78 96,-84 96,-84 96,-96 96,-96 96,-102 90,-108 84,-108"/>
<text text-anchor="middle" x="48" y="-87.5" font-family="sans" font-size="10.00">make_rulegraph</text>
</g>
<!-- 1&#45;&gt;0 -->
<g id="edge8" class="edge"><title>1&#45;&gt;0</title>
<path fill="none" stroke="grey" stroke-width="2" d="M96.2083,-74.8823C100.845,-73.7965 105.496,-72.8099 110,-72 306.343,-36.6906 543.31,-24.5638 650.862,-20.6842"/>
<polygon fill="grey" stroke="grey" stroke-width="2" points="650.989,-24.182 660.861,-20.334 650.744,-17.1863 650.989,-24.182"/>
</g>
<!-- 2 -->
<g id="node3" class="node"><title>2</title>
<path fill="none" stroke="#566bd8" stroke-width="2" d="M268.5,-612C268.5,-612 155.5,-612 155.5,-612 149.5,-612 143.5,-606 143.5,-600 143.5,-600 143.5,-588 143.5,-588 143.5,-582 149.5,-576 155.5,-576 155.5,-576 268.5,-576 268.5,-576 274.5,-576 280.5,-582 280.5,-588 280.5,-588 280.5,-600 280.5,-600 280.5,-606 274.5,-612 268.5,-612"/>
<text text-anchor="middle" x="212" y="-591.5" font-family="sans" font-size="10.00">get_codon_variant_table</text>
</g>
<!-- 2&#45;&gt;0 -->
<g id="edge17" class="edge"><title>2&#45;&gt;0</title>
<path fill="none" stroke="grey" stroke-width="2" d="M190.587,-575.893C179.664,-566.28 166.852,-553.517 158,-540 134.801,-504.577 124,-493.344 124,-451 124,-451 124,-451 124,-161 124,-96.0183 179.738,-96.3133 240,-72 313.247,-42.4475 542.14,-27.3485 650.723,-21.6934"/>
<polygon fill="grey" stroke="grey" stroke-width="2" points="651.038,-25.182 660.846,-21.1754 650.68,-18.1911 651.038,-25.182"/>
</g>
<!-- 3 -->
<g id="node4" class="node"><title>3</title>
<path fill="none" stroke="#56d86b" stroke-width="2" d="M344.5,-468C344.5,-468 225.5,-468 225.5,-468 219.5,-468 213.5,-462 213.5,-456 213.5,-456 213.5,-444 213.5,-444 213.5,-438 219.5,-432 225.5,-432 225.5,-432 344.5,-432 344.5,-432 350.5,-432 356.5,-438 356.5,-444 356.5,-444 356.5,-456 356.5,-456 356.5,-462 350.5,-468 344.5,-468"/>
<text text-anchor="middle" x="285" y="-447.5" font-family="sans" font-size="10.00">aggregate_variant_counts</text>
</g>
<!-- 2&#45;&gt;3 -->
<g id="edge19" class="edge"><title>2&#45;&gt;3</title>
<path fill="none" stroke="grey" stroke-width="2" d="M234.337,-575.836C245.151,-566.388 257.407,-553.793 265,-540 275.534,-520.864 280.523,-496.513 282.884,-478.121"/>
<polygon fill="grey" stroke="grey" stroke-width="2" points="286.375,-478.388 283.992,-468.065 279.417,-477.621 286.375,-478.388"/>
</g>
<!-- 18 -->
<g id="node19" class="node"><title>18</title>
<path fill="none" stroke="#b6d856" stroke-width="2" d="M244.5,-540C244.5,-540 179.5,-540 179.5,-540 173.5,-540 167.5,-534 167.5,-528 167.5,-528 167.5,-516 167.5,-516 167.5,-510 173.5,-504 179.5,-504 179.5,-504 244.5,-504 244.5,-504 250.5,-504 256.5,-510 256.5,-516 256.5,-516 256.5,-528 256.5,-528 256.5,-534 250.5,-540 244.5,-540"/>
<text text-anchor="middle" x="212" y="-519.5" font-family="sans" font-size="10.00">count_variants</text>
</g>
<!-- 2&#45;&gt;18 -->
<g id="edge42" class="edge"><title>2&#45;&gt;18</title>
<path fill="none" stroke="grey" stroke-width="2" d="M212,-575.697C212,-567.983 212,-558.712 212,-550.112"/>
<polygon fill="grey" stroke="grey" stroke-width="2" points="215.5,-550.104 212,-540.104 208.5,-550.104 215.5,-550.104"/>
</g>
<!-- 3&#45;&gt;0 -->
<g id="edge3" class="edge"><title>3&#45;&gt;0</title>
<path fill="none" stroke="grey" stroke-width="2" d="M282.787,-431.919C278.388,-391.992 271.706,-290.308 306,-216 343.533,-134.671 368.297,-114.767 447,-72 511.106,-37.1649 595.286,-25.1271 650.707,-21.0238"/>
<polygon fill="grey" stroke="grey" stroke-width="2" points="650.969,-24.5142 660.71,-20.3463 650.496,-17.5302 650.969,-24.5142"/>
</g>
<!-- 4 -->
<g id="node5" class="node"><title>4</title>
<path fill="none" stroke="#d8b456" stroke-width="2" d="M259.5,-324C259.5,-324 164.5,-324 164.5,-324 158.5,-324 152.5,-318 152.5,-312 152.5,-312 152.5,-300 152.5,-300 152.5,-294 158.5,-288 164.5,-288 164.5,-288 259.5,-288 259.5,-288 265.5,-288 271.5,-294 271.5,-300 271.5,-300 271.5,-312 271.5,-312 271.5,-318 265.5,-324 259.5,-324"/>
<text text-anchor="middle" x="212" y="-303.5" font-family="sans" font-size="10.00">counts_to_cells_ratio</text>
</g>
<!-- 3&#45;&gt;4 -->
<g id="edge20" class="edge"><title>3&#45;&gt;4</title>
<path fill="none" stroke="grey" stroke-width="2" d="M276.194,-431.871C263.589,-407.35 240.291,-362.032 225.499,-333.259"/>
<polygon fill="grey" stroke="grey" stroke-width="2" points="228.522,-331.483 220.837,-324.189 222.296,-334.683 228.522,-331.483"/>
</g>
<!-- 5 -->
<g id="node6" class="node"><title>5</title>
<path fill="none" stroke="#56d89a" stroke-width="2" d="M971.5,-396C971.5,-396 894.5,-396 894.5,-396 888.5,-396 882.5,-390 882.5,-384 882.5,-384 882.5,-372 882.5,-372 882.5,-366 888.5,-360 894.5,-360 894.5,-360 971.5,-360 971.5,-360 977.5,-360 983.5,-366 983.5,-372 983.5,-372 983.5,-384 983.5,-384 983.5,-390 977.5,-396 971.5,-396"/>
<text text-anchor="middle" x="933" y="-375.5" font-family="sans" font-size="10.00">counts_to_scores</text>
</g>
<!-- 3&#45;&gt;5 -->
<g id="edge24" class="edge"><title>3&#45;&gt;5</title>
<path fill="none" stroke="grey" stroke-width="2" d="M356.512,-441.275C484.763,-427.421 751.686,-398.586 871.939,-385.596"/>
<polygon fill="grey" stroke="grey" stroke-width="2" points="872.507,-389.055 882.073,-384.501 871.755,-382.096 872.507,-389.055"/>
</g>
<!-- 4&#45;&gt;0 -->
<g id="edge6" class="edge"><title>4&#45;&gt;0</title>
<path fill="none" stroke="grey" stroke-width="2" d="M210.629,-287.975C208.157,-244.441 208.276,-128.522 273,-72 328.027,-23.9458 544.955,-18.1356 650.585,-18.2524"/>
<polygon fill="grey" stroke="grey" stroke-width="2" points="650.746,-21.7528 660.757,-18.2825 650.767,-14.7528 650.746,-21.7528"/>
</g>
<!-- 5&#45;&gt;0 -->
<g id="edge10" class="edge"><title>5&#45;&gt;0</title>
<path fill="none" stroke="grey" stroke-width="2" d="M983.79,-371.406C1057.91,-360.109 1187,-327.2 1187,-235 1187,-235 1187,-235 1187,-161 1187,-120.553 1197.93,-99.2045 1168,-72 1138.86,-45.5188 884.467,-28.4835 767.447,-21.9803"/>
<polygon fill="grey" stroke="grey" stroke-width="2" points="767.414,-18.4733 757.237,-21.4203 767.03,-25.4628 767.414,-18.4733"/>
</g>
<!-- 6 -->
<g id="node7" class="node"><title>6</title>
<path fill="none" stroke="#d88556" stroke-width="2" d="M872.5,-324C872.5,-324 769.5,-324 769.5,-324 763.5,-324 757.5,-318 757.5,-312 757.5,-312 757.5,-300 757.5,-300 757.5,-294 763.5,-288 769.5,-288 769.5,-288 872.5,-288 872.5,-288 878.5,-288 884.5,-294 884.5,-300 884.5,-300 884.5,-312 884.5,-312 884.5,-318 878.5,-324 872.5,-324"/>
<text text-anchor="middle" x="821" y="-303.5" font-family="sans" font-size="10.00">scores_to_frac_escape</text>
</g>
<!-- 5&#45;&gt;6 -->
<g id="edge25" class="edge"><title>5&#45;&gt;6</title>
<path fill="none" stroke="grey" stroke-width="2" d="M905.602,-359.876C891.093,-350.808 873.084,-339.552 857.415,-329.759"/>
<polygon fill="grey" stroke="grey" stroke-width="2" points="858.839,-326.522 848.504,-324.19 855.129,-332.458 858.839,-326.522"/>
</g>
<!-- 6&#45;&gt;0 -->
<g id="edge13" class="edge"><title>6&#45;&gt;0</title>
<path fill="none" stroke="grey" stroke-width="2" d="M757.23,-301.19C715.354,-295.718 661.577,-282.698 624,-252 568.586,-206.731 568.44,-177.64 552,-108 548.324,-92.428 542.669,-84.9977 552,-72 574.369,-40.8389 616.028,-27.7603 650.815,-22.3811"/>
<polygon fill="grey" stroke="grey" stroke-width="2" points="651.456,-25.826 660.89,-21.0032 650.508,-18.8905 651.456,-25.826"/>
</g>
<!-- 7 -->
<g id="node8" class="node"><title>7</title>
<path fill="none" stroke="#59d856" stroke-width="2" d="M975,-252C975,-252 861,-252 861,-252 855,-252 849,-246 849,-240 849,-240 849,-228 849,-228 849,-222 855,-216 861,-216 861,-216 975,-216 975,-216 981,-216 987,-222 987,-228 987,-228 987,-240 987,-240 987,-246 981,-252 975,-252"/>
<text text-anchor="middle" x="918" y="-231.5" font-family="sans" font-size="10.00">call_strong_escape_sites</text>
</g>
<!-- 6&#45;&gt;7 -->
<g id="edge26" class="edge"><title>6&#45;&gt;7</title>
<path fill="none" stroke="grey" stroke-width="2" d="M844.978,-287.697C857.311,-278.796 872.516,-267.823 885.853,-258.199"/>
<polygon fill="grey" stroke="grey" stroke-width="2" points="888.237,-260.794 894.298,-252.104 884.141,-255.118 888.237,-260.794"/>
</g>
<!-- 8 -->
<g id="node9" class="node"><title>8</title>
<path fill="none" stroke="#d8cb56" stroke-width="2" d="M1013,-180C1013,-180 945,-180 945,-180 939,-180 933,-174 933,-168 933,-168 933,-156 933,-156 933,-150 939,-144 945,-144 945,-144 1013,-144 1013,-144 1019,-144 1025,-150 1025,-156 1025,-156 1025,-168 1025,-168 1025,-174 1019,-180 1013,-180"/>
<text text-anchor="middle" x="979" y="-159.5" font-family="sans" font-size="10.00">escape_profiles</text>
</g>
<!-- 6&#45;&gt;8 -->
<g id="edge29" class="edge"><title>6&#45;&gt;8</title>
<path fill="none" stroke="grey" stroke-width="2" d="M884.648,-303.688C923.544,-299.177 970.558,-286.289 996,-252 1009.39,-233.952 1002.54,-208.331 993.873,-189.209"/>
<polygon fill="grey" stroke="grey" stroke-width="2" points="996.967,-187.569 989.411,-180.142 990.686,-190.66 996.967,-187.569"/>
</g>
<!-- 9 -->
<g id="node10" class="node"><title>9</title>
<path fill="none" stroke="#5682d8" stroke-width="2" d="M668.5,-108C668.5,-108 573.5,-108 573.5,-108 567.5,-108 561.5,-102 561.5,-96 561.5,-96 561.5,-84 561.5,-84 561.5,-78 567.5,-72 573.5,-72 573.5,-72 668.5,-72 668.5,-72 674.5,-72 680.5,-78 680.5,-84 680.5,-84 680.5,-96 680.5,-96 680.5,-102 674.5,-108 668.5,-108"/>
<text text-anchor="middle" x="621" y="-87.5" font-family="sans" font-size="10.00">mds_escape_profiles</text>
</g>
<!-- 6&#45;&gt;9 -->
<g id="edge30" class="edge"><title>6&#45;&gt;9</title>
<path fill="none" stroke="grey" stroke-width="2" d="M757.157,-298.808C721.929,-292.325 679.649,-279.073 651,-252 614.668,-217.667 614.09,-154.556 617.292,-118.388"/>
<polygon fill="grey" stroke="grey" stroke-width="2" points="620.81,-118.4 618.372,-108.09 613.848,-117.67 620.81,-118.4"/>
</g>
<!-- 10 -->
<g id="node11" class="node"><title>10</title>
<path fill="none" stroke="#70d856" stroke-width="2" d="M1146.5,-180C1146.5,-180 1093.5,-180 1093.5,-180 1087.5,-180 1081.5,-174 1081.5,-168 1081.5,-168 1081.5,-156 1081.5,-156 1081.5,-150 1087.5,-144 1093.5,-144 1093.5,-144 1146.5,-144 1146.5,-144 1152.5,-144 1158.5,-150 1158.5,-156 1158.5,-156 1158.5,-168 1158.5,-168 1158.5,-174 1152.5,-180 1146.5,-180"/>
<text text-anchor="middle" x="1120" y="-159.5" font-family="sans" font-size="10.00">output_pdbs</text>
</g>
<!-- 6&#45;&gt;10 -->
<g id="edge32" class="edge"><title>6&#45;&gt;10</title>
<path fill="none" stroke="grey" stroke-width="2" d="M884.695,-304.96C937.965,-301.936 1013.6,-290.361 1067,-252 1088.24,-236.741 1102.45,-210.097 1110.77,-189.927"/>
<polygon fill="grey" stroke="grey" stroke-width="2" points="1114.13,-190.934 1114.48,-180.345 1107.6,-188.404 1114.13,-190.934"/>
</g>
<!-- 12 -->
<g id="node13" class="node"><title>12</title>
<path fill="none" stroke="#88d856" stroke-width="2" d="M865,-180C865,-180 783,-180 783,-180 777,-180 771,-174 771,-168 771,-168 771,-156 771,-156 771,-150 777,-144 783,-144 783,-144 865,-144 865,-144 871,-144 877,-150 877,-156 877,-156 877,-168 877,-168 877,-174 871,-180 865,-180"/>
<text text-anchor="middle" x="824" y="-159.5" font-family="sans" font-size="10.00">natural_mutations</text>
</g>
<!-- 6&#45;&gt;12 -->
<g id="edge33" class="edge"><title>6&#45;&gt;12</title>
<path fill="none" stroke="grey" stroke-width="2" d="M821.362,-287.871C821.873,-263.67 822.812,-219.211 823.421,-190.393"/>
<polygon fill="grey" stroke="grey" stroke-width="2" points="826.925,-190.261 823.637,-180.189 819.926,-190.113 826.925,-190.261"/>
</g>
<!-- 13 -->
<g id="node14" class="node"><title>13</title>
<path fill="none" stroke="#56d8c9" stroke-width="2" d="M402.5,-252C402.5,-252 327.5,-252 327.5,-252 321.5,-252 315.5,-246 315.5,-240 315.5,-240 315.5,-228 315.5,-228 315.5,-222 321.5,-216 327.5,-216 327.5,-216 402.5,-216 402.5,-216 408.5,-216 414.5,-222 414.5,-228 414.5,-228 414.5,-240 414.5,-240 414.5,-246 408.5,-252 402.5,-252"/>
<text text-anchor="middle" x="365" y="-231.5" font-family="sans" font-size="10.00">homolog_escape</text>
</g>
<!-- 6&#45;&gt;13 -->
<g id="edge36" class="edge"><title>6&#45;&gt;13</title>
<path fill="none" stroke="grey" stroke-width="2" d="M757.252,-299.419C680.494,-292.047 547.614,-277.204 424.724,-251.972"/>
<polygon fill="grey" stroke="grey" stroke-width="2" points="425.267,-248.51 414.763,-249.899 423.841,-255.363 425.267,-248.51"/>
</g>
<!-- 14 -->
<g id="node15" class="node"><title>14</title>
<path fill="none" stroke="#56d8b1" stroke-width="2" d="M527,-252C527,-252 445,-252 445,-252 439,-252 433,-246 433,-240 433,-240 433,-228 433,-228 433,-222 439,-216 445,-216 445,-216 527,-216 527,-216 533,-216 539,-222 539,-228 539,-228 539,-240 539,-240 539,-246 533,-252 527,-252"/>
<text text-anchor="middle" x="486" y="-231.5" font-family="sans" font-size="10.00">escape_selections</text>
</g>
<!-- 6&#45;&gt;14 -->
<g id="edge37" class="edge"><title>6&#45;&gt;14</title>
<path fill="none" stroke="grey" stroke-width="2" d="M757.445,-293.418C703.016,-283.264 622.631,-267.707 553,-252 551.749,-251.718 550.485,-251.429 549.213,-251.136"/>
<polygon fill="grey" stroke="grey" stroke-width="2" points="549.869,-247.695 539.332,-248.804 548.261,-254.508 549.869,-247.695"/>
</g>
<!-- 15 -->
<g id="node16" class="node"><title>15</title>
<path fill="none" stroke="#56d882" stroke-width="2" d="M981,-108C981,-108 905,-108 905,-108 899,-108 893,-102 893,-96 893,-96 893,-84 893,-84 893,-78 899,-72 905,-72 905,-72 981,-72 981,-72 987,-72 993,-78 993,-84 993,-84 993,-96 993,-96 993,-102 987,-108 981,-108"/>
<text text-anchor="middle" x="943" y="-87.5" font-family="sans" font-size="10.00">make_supp_data</text>
</g>
<!-- 6&#45;&gt;15 -->
<g id="edge38" class="edge"><title>6&#45;&gt;15</title>
<path fill="none" stroke="grey" stroke-width="2" d="M884.571,-303.179C926.613,-298.613 980.043,-285.857 1014,-252 1048.57,-217.533 1058.33,-186.322 1034,-144 1026.52,-130.993 1014.49,-120.878 1001.59,-113.139"/>
<polygon fill="grey" stroke="grey" stroke-width="2" points="1003.01,-109.925 992.562,-108.154 999.623,-116.053 1003.01,-109.925"/>
</g>
<!-- 17 -->
<g id="node18" class="node"><title>17</title>
<path fill="none" stroke="#56c9d8" stroke-width="2" d="M703,-180C703,-180 645,-180 645,-180 639,-180 633,-174 633,-168 633,-168 633,-156 633,-156 633,-150 639,-144 645,-144 645,-144 703,-144 703,-144 709,-144 715,-150 715,-156 715,-156 715,-168 715,-168 715,-174 709,-180 703,-180"/>
<text text-anchor="middle" x="674" y="-159.5" font-family="sans" font-size="10.00">custom_plots</text>
</g>
<!-- 6&#45;&gt;17 -->
<g id="edge41" class="edge"><title>6&#45;&gt;17</title>
<path fill="none" stroke="grey" stroke-width="2" d="M757.431,-301.094C723.217,-295.361 683.692,-282.096 662,-252 649.036,-234.013 654.178,-208.545 661.311,-189.458"/>
<polygon fill="grey" stroke="grey" stroke-width="2" points="664.579,-190.713 665.137,-180.133 658.103,-188.056 664.579,-190.713"/>
</g>
<!-- 7&#45;&gt;0 -->
<g id="edge2" class="edge"><title>7&#45;&gt;0</title>
<path fill="none" stroke="grey" stroke-width="2" d="M914.941,-215.848C910.88,-196.809 902.249,-165.884 886,-144 877.998,-133.224 799.988,-79.7093 789,-72 774.431,-61.7776 758.09,-50.8575 743.993,-41.6021"/>
<polygon fill="grey" stroke="grey" stroke-width="2" points="745.827,-38.6192 735.542,-36.0755 741.996,-44.4778 745.827,-38.6192"/>
</g>
<!-- 7&#45;&gt;8 -->
<g id="edge28" class="edge"><title>7&#45;&gt;8</title>
<path fill="none" stroke="grey" stroke-width="2" d="M933.079,-215.697C940.392,-207.305 949.31,-197.07 957.335,-187.861"/>
<polygon fill="grey" stroke="grey" stroke-width="2" points="960.164,-189.943 964.095,-180.104 954.886,-185.344 960.164,-189.943"/>
</g>
<!-- 7&#45;&gt;12 -->
<g id="edge35" class="edge"><title>7&#45;&gt;12</title>
<path fill="none" stroke="grey" stroke-width="2" d="M894.764,-215.697C882.812,-206.796 868.077,-195.823 855.153,-186.199"/>
<polygon fill="grey" stroke="grey" stroke-width="2" points="857.08,-183.27 846.969,-180.104 852.899,-188.884 857.08,-183.27"/>
</g>
<!-- 8&#45;&gt;0 -->
<g id="edge7" class="edge"><title>8&#45;&gt;0</title>
<path fill="none" stroke="grey" stroke-width="2" d="M944.659,-143.851C926.181,-134.13 903.289,-121.28 884,-108 863.471,-93.8658 862.385,-84.8021 841,-72 817.908,-58.1762 790.554,-46.517 766.752,-37.6847"/>
<polygon fill="grey" stroke="grey" stroke-width="2" points="767.731,-34.3166 757.137,-34.1967 765.344,-40.897 767.731,-34.3166"/>
</g>
<!-- 8&#45;&gt;15 -->
<g id="edge39" class="edge"><title>8&#45;&gt;15</title>
<path fill="none" stroke="grey" stroke-width="2" d="M970.101,-143.697C966.003,-135.728 961.051,-126.1 956.507,-117.264"/>
<polygon fill="grey" stroke="grey" stroke-width="2" points="959.483,-115.396 951.797,-108.104 953.258,-118.598 959.483,-115.396"/>
</g>
<!-- 9&#45;&gt;0 -->
<g id="edge11" class="edge"><title>9&#45;&gt;0</title>
<path fill="none" stroke="grey" stroke-width="2" d="M642.753,-71.6966C653.836,-62.8807 667.474,-52.0321 679.49,-42.4742"/>
<polygon fill="grey" stroke="grey" stroke-width="2" points="681.85,-45.0687 687.497,-36.1043 677.493,-39.5905 681.85,-45.0687"/>
</g>
<!-- 10&#45;&gt;0 -->
<g id="edge16" class="edge"><title>10&#45;&gt;0</title>
<path fill="none" stroke="grey" stroke-width="2" d="M1091.77,-143.986C1076.07,-134.108 1056.43,-121.064 1040,-108 1021.79,-93.5213 1022.76,-82.5085 1002,-72 926.903,-33.9796 828.8,-22.8833 767.339,-19.8425"/>
<polygon fill="grey" stroke="grey" stroke-width="2" points="767.195,-16.3329 757.051,-19.392 766.889,-23.3262 767.195,-16.3329"/>
</g>
<!-- 11 -->
<g id="node12" class="node"><title>11</title>
<path fill="none" stroke="#9fd856" stroke-width="2" d="M781,-252C781,-252 683,-252 683,-252 677,-252 671,-246 671,-240 671,-240 671,-228 671,-228 671,-222 677,-216 683,-216 683,-216 781,-216 781,-216 787,-216 793,-222 793,-228 793,-228 793,-240 793,-240 793,-246 787,-252 781,-252"/>
<text text-anchor="middle" x="732" y="-231.5" font-family="sans" font-size="10.00">gisaid_rbd_mutations</text>
</g>
<!-- 11&#45;&gt;0 -->
<g id="edge12" class="edge"><title>11&#45;&gt;0</title>
<path fill="none" stroke="grey" stroke-width="2" d="M730.617,-215.923C729.129,-197.996 726.622,-168.995 724,-144 720.468,-110.334 715.719,-71.6521 712.519,-46.3455"/>
<polygon fill="grey" stroke="grey" stroke-width="2" points="715.984,-45.8506 711.25,-36.3723 709.04,-46.734 715.984,-45.8506"/>
</g>
<!-- 11&#45;&gt;12 -->
<g id="edge34" class="edge"><title>11&#45;&gt;12</title>
<path fill="none" stroke="grey" stroke-width="2" d="M754.742,-215.697C766.44,-206.796 780.861,-195.823 793.51,-186.199"/>
<polygon fill="grey" stroke="grey" stroke-width="2" points="795.681,-188.945 801.52,-180.104 791.442,-183.374 795.681,-188.945"/>
</g>
<!-- 11&#45;&gt;17 -->
<g id="edge40" class="edge"><title>11&#45;&gt;17</title>
<path fill="none" stroke="grey" stroke-width="2" d="M717.663,-215.697C710.709,-207.305 702.23,-197.07 694.599,-187.861"/>
<polygon fill="grey" stroke="grey" stroke-width="2" points="697.247,-185.571 688.172,-180.104 691.857,-190.038 697.247,-185.571"/>
</g>
<!-- 12&#45;&gt;0 -->
<g id="edge15" class="edge"><title>12&#45;&gt;0</title>
<path fill="none" stroke="grey" stroke-width="2" d="M812.93,-143.673C800.914,-125.288 780.783,-95.6816 761,-72 752.736,-62.107 742.994,-51.8558 734.189,-43.0357"/>
<polygon fill="grey" stroke="grey" stroke-width="2" points="736.641,-40.5386 727.066,-36.0028 731.723,-45.5195 736.641,-40.5386"/>
</g>
<!-- 13&#45;&gt;0 -->
<g id="edge1" class="edge"><title>13&#45;&gt;0</title>
<path fill="none" stroke="grey" stroke-width="2" d="M373.731,-215.826C391.555,-182.579 435.444,-109.408 494,-72 541.438,-41.6946 604.947,-28.7178 650.624,-23.1612"/>
<polygon fill="grey" stroke="grey" stroke-width="2" points="651.125,-26.6269 660.667,-22.0234 650.337,-19.6714 651.125,-26.6269"/>
</g>
<!-- 14&#45;&gt;0 -->
<g id="edge14" class="edge"><title>14&#45;&gt;0</title>
<path fill="none" stroke="grey" stroke-width="2" d="M484.189,-215.865C481.759,-183.331 481.445,-112.275 519,-72 552.55,-36.0199 608.277,-23.7312 650.726,-19.8747"/>
<polygon fill="grey" stroke="grey" stroke-width="2" points="651.235,-23.3459 660.935,-19.0842 650.695,-16.3668 651.235,-23.3459"/>
</g>
<!-- 15&#45;&gt;0 -->
<g id="edge5" class="edge"><title>15&#45;&gt;0</title>
<path fill="none" stroke="grey" stroke-width="2" d="M892.801,-73.9832C855.942,-62.957 805.781,-47.9515 767.172,-36.4019"/>
<polygon fill="grey" stroke="grey" stroke-width="2" points="767.7,-32.9065 757.116,-33.3937 765.693,-39.6129 767.7,-32.9065"/>
</g>
<!-- 16 -->
<g id="node17" class="node"><title>16</title>
<path fill="none" stroke="#ced856" stroke-width="2" d="M1147,-108C1147,-108 1061,-108 1061,-108 1055,-108 1049,-102 1049,-96 1049,-96 1049,-84 1049,-84 1049,-78 1055,-72 1061,-72 1061,-72 1147,-72 1147,-72 1153,-72 1159,-78 1159,-84 1159,-84 1159,-96 1159,-96 1159,-102 1153,-108 1147,-108"/>
<text text-anchor="middle" x="1104" y="-87.5" font-family="sans" font-size="10.00">structural_contacts</text>
</g>
<!-- 16&#45;&gt;0 -->
<g id="edge9" class="edge"><title>16&#45;&gt;0</title>
<path fill="none" stroke="grey" stroke-width="2" d="M1048.73,-74.9672C1044.09,-73.9172 1039.47,-72.913 1035,-72 941.808,-52.9765 832.515,-36.354 767.113,-27.0079"/>
<polygon fill="grey" stroke="grey" stroke-width="2" points="767.395,-23.5129 757.002,-25.5711 766.41,-30.4433 767.395,-23.5129"/>
</g>
<!-- 17&#45;&gt;0 -->
<g id="edge4" class="edge"><title>17&#45;&gt;0</title>
<path fill="none" stroke="grey" stroke-width="2" d="M679.103,-143.878C682.123,-133.529 685.943,-120.05 689,-108 694.224,-87.4063 699.465,-63.955 703.271,-46.2968"/>
<polygon fill="grey" stroke="grey" stroke-width="2" points="706.777,-46.6384 705.442,-36.128 699.931,-45.1767 706.777,-46.6384"/>
</g>
<!-- 17&#45;&gt;9 -->
<g id="edge31" class="edge"><title>17&#45;&gt;9</title>
<path fill="none" stroke="grey" stroke-width="2" d="M660.899,-143.697C654.609,-135.389 646.953,-125.277 640.035,-116.141"/>
<polygon fill="grey" stroke="grey" stroke-width="2" points="642.777,-113.964 633.95,-108.104 637.196,-118.19 642.777,-113.964"/>
</g>
<!-- 18&#45;&gt;3 -->
<g id="edge18" class="edge"><title>18&#45;&gt;3</title>
<path fill="none" stroke="grey" stroke-width="2" d="M230.045,-503.697C239.062,-495.05 250.118,-484.449 259.943,-475.027"/>
<polygon fill="grey" stroke="grey" stroke-width="2" points="262.367,-477.552 267.163,-468.104 257.522,-472.499 262.367,-477.552"/>
</g>
<!-- 19 -->
<g id="node20" class="node"><title>19</title>
<path fill="none" stroke="#d89c56" stroke-width="2" d="M1212,-468C1212,-468 1126,-468 1126,-468 1120,-468 1114,-462 1114,-456 1114,-456 1114,-444 1114,-444 1114,-438 1120,-432 1126,-432 1126,-432 1212,-432 1212,-432 1218,-432 1224,-438 1224,-444 1224,-444 1224,-456 1224,-456 1224,-462 1218,-468 1212,-468"/>
<text text-anchor="middle" x="1169" y="-447.5" font-family="sans" font-size="10.00">get_mut_bind_expr</text>
</g>
<!-- 19&#45;&gt;5 -->
<g id="edge21" class="edge"><title>19&#45;&gt;5</title>
<path fill="none" stroke="grey" stroke-width="2" d="M1113.97,-432.676C1077.83,-421.959 1030.56,-407.937 993.39,-396.912"/>
<polygon fill="grey" stroke="grey" stroke-width="2" points="994.265,-393.521 983.683,-394.033 992.275,-400.232 994.265,-393.521"/>
</g>
<!-- 19&#45;&gt;8 -->
<g id="edge27" class="edge"><title>19&#45;&gt;8</title>
<path fill="none" stroke="grey" stroke-width="2" d="M1157.68,-431.966C1125.68,-383.795 1034.38,-246.366 996.159,-188.829"/>
<polygon fill="grey" stroke="grey" stroke-width="2" points="998.946,-186.699 990.497,-180.306 993.116,-190.573 998.946,-186.699"/>
</g>
<!-- 20 -->
<g id="node21" class="node"><title>20</title>
<path fill="none" stroke="#d86e56" stroke-width="2" d="M911.5,-468C911.5,-468 836.5,-468 836.5,-468 830.5,-468 824.5,-462 824.5,-456 824.5,-456 824.5,-444 824.5,-444 824.5,-438 830.5,-432 836.5,-432 836.5,-432 911.5,-432 911.5,-432 917.5,-432 923.5,-438 923.5,-444 923.5,-444 923.5,-456 923.5,-456 923.5,-462 917.5,-468 911.5,-468"/>
<text text-anchor="middle" x="874" y="-447.5" font-family="sans" font-size="10.00">get_variant_expr</text>
</g>
<!-- 20&#45;&gt;5 -->
<g id="edge23" class="edge"><title>20&#45;&gt;5</title>
<path fill="none" stroke="grey" stroke-width="2" d="M888.584,-431.697C895.658,-423.305 904.283,-413.07 912.045,-403.861"/>
<polygon fill="grey" stroke="grey" stroke-width="2" points="914.815,-406.006 918.583,-396.104 909.463,-401.495 914.815,-406.006"/>
</g>
<!-- 21 -->
<g id="node22" class="node"><title>21</title>
<path fill="none" stroke="#56b1d8" stroke-width="2" d="M1028,-468C1028,-468 954,-468 954,-468 948,-468 942,-462 942,-456 942,-456 942,-444 942,-444 942,-438 948,-432 954,-432 954,-432 1028,-432 1028,-432 1034,-432 1040,-438 1040,-444 1040,-444 1040,-456 1040,-456 1040,-462 1034,-468 1028,-468"/>
<text text-anchor="middle" x="991" y="-447.5" font-family="sans" font-size="10.00">get_variant_bind</text>
</g>
<!-- 21&#45;&gt;5 -->
<g id="edge22" class="edge"><title>21&#45;&gt;5</title>
<path fill="none" stroke="grey" stroke-width="2" d="M976.663,-431.697C969.709,-423.305 961.23,-413.07 953.599,-403.861"/>
<polygon fill="grey" stroke="grey" stroke-width="2" points="956.247,-401.571 947.172,-396.104 950.857,-406.038 956.247,-401.571"/>
</g>
</g>
</svg>
